<svg xmlns="http://www.w3.org/2000/svg" width="720" height="1280" viewBox="0 0 720 1280" role="img" aria-labelledby="title desc">
  <title id="title">Marker and PopView concept preview</title>
  <desc id="desc">AI-generated concept preview for uni-baidu-map-harmony showing a marker with PopView.</desc>
  <rect width="720" height="1280" fill="#f6f8fa"/>
  <rect x="70" y="34" width="580" height="1212" rx="52" fill="#0d1117"/>
  <rect x="86" y="50" width="548" height="1180" rx="40" fill="#ffffff"/>
  <rect x="275" y="66" width="170" height="22" rx="11" fill="#0d1117"/>
  <text x="116" y="140" font-family="-apple-system,BlinkMacSystemFont,'Segoe UI',sans-serif" font-size="30" font-weight="700" fill="#1f2328">uni-baidu-map-harmony</text>
  <text x="116" y="184" font-family="-apple-system,BlinkMacSystemFont,'Segoe UI',sans-serif" font-size="22" fill="#57606a">Marker + PopView</text>
  <g transform="translate(104 220)">
    <rect width="512" height="760" rx="24" fill="#eef7f2"/>
    <path d="M0 118 C116 92 196 154 318 112 S456 82 512 102" fill="none" stroke="#8fd3b2" stroke-width="18"/>
    <path d="M74 0 C90 124 66 224 106 356 S126 626 88 760" fill="none" stroke="#c8d7e1" stroke-width="14"/>
    <path d="M0 458 C126 430 238 472 332 444 S452 406 512 426" fill="none" stroke="#f4c77b" stroke-width="12"/>
    <path d="M390 0 C366 118 420 204 386 320 S352 570 406 760" fill="none" stroke="#c8d7e1" stroke-width="10"/>
    <rect x="28" y="42" width="132" height="88" rx="12" fill="#dce8f7"/>
    <rect x="192" y="74" width="112" height="120" rx="12" fill="#e6ecf3"/>
    <rect x="350" y="56" width="120" height="92" rx="12" fill="#dce8f7"/>
    <rect x="44" y="238" width="130" height="126" rx="12" fill="#e6ecf3"/>
    <rect x="218" y="248" width="116" height="104" rx="12" fill="#dce8f7"/>
    <rect x="372" y="234" width="104" height="136" rx="12" fill="#e6ecf3"/>
    <g transform="translate(78 230)">
      <rect width="356" height="164" rx="22" fill="#ffffff" stroke="#d0d7de"/>
      <text x="24" y="42" font-family="-apple-system,BlinkMacSystemFont,'Segoe UI',sans-serif" font-size="23" font-weight="700" fill="#1f2328">Example location</text>
      <text x="24" y="78" font-family="-apple-system,BlinkMacSystemFont,'Segoe UI',sans-serif" font-size="19" fill="#bf8700">350 m</text>
      <text x="24" y="112" font-family="-apple-system,BlinkMacSystemFont,'Segoe UI',sans-serif" font-size="18" fill="#57606a">Name · distance · address</text>
      <text x="24" y="142" font-family="-apple-system,BlinkMacSystemFont,'Segoe UI',sans-serif" font-size="17" fill="#0969da">Native PopView preview</text>
      <path d="M160 164 L180 188 L200 164" fill="#ffffff" stroke="#d0d7de"/>
    </g>
    <g transform="translate(236 424)">
      <path d="M20 0 C9 0 0 9 0 20 C0 40 20 60 20 60 C20 60 40 40 40 20 C40 9 31 0 20 0Z" fill="#cf222e"/>
      <circle cx="20" cy="20" r="7" fill="#ffffff"/>
    </g>
    <rect x="430" y="616" width="56" height="112" rx="12" fill="#ffffff" stroke="#d0d7de"/>
    <text x="458" y="662" text-anchor="middle" font-family="sans-serif" font-size="30" fill="#1f2328">+</text>
    <line x1="442" y1="674" x2="474" y2="674" stroke="#d0d7de"/>
    <text x="458" y="714" text-anchor="middle" font-family="sans-serif" font-size="34" fill="#1f2328">−</text>
  </g>
  <rect x="104" y="1008" width="512" height="92" rx="20" fill="#f6f8fa" stroke="#d0d7de"/>
  <text x="128" y="1046" font-family="-apple-system,BlinkMacSystemFont,'Segoe UI',sans-serif" font-size="20" fill="#57606a">Current v0.1.0 capability</text>
  <text x="128" y="1078" font-family="-apple-system,BlinkMacSystemFont,'Segoe UI',sans-serif" font-size="20" fill="#1f2328">Single marker + optional native PopView</text>
  <rect x="104" y="1130" width="512" height="62" rx="16" fill="#ddf4ff"/>
  <text x="360" y="1169" text-anchor="middle" font-family="-apple-system,BlinkMacSystemFont,'Segoe UI',sans-serif" font-size="20" font-weight="600" fill="#0969da">AI-generated concept preview · 非真机验证截图</text>
</svg>
